<svg width="32" height="32" viewBox="0 0 32 32" fill="none" xmlns="http://www.w3.org/2000/svg">
<path d="M24.0004 22.3334C23.787 22.3334 23.587 22.2667 23.4004 22.1334C22.9604 21.8 22.867 21.1734 23.2004 20.7334C25.2937 17.9467 25.2937 14.0534 23.2004 11.2667C22.867 10.8267 22.9604 10.2 23.4004 9.86668C23.8404 9.53335 24.467 9.62668 24.8004 10.0667C27.4137 13.56 27.4137 18.44 24.8004 21.9334C24.6004 22.2 24.307 22.3334 24.0004 22.3334Z" fill="white"/>
<path d="M26.4408 25.6667C26.2275 25.6667 26.0275 25.6 25.8408 25.4667C25.4008 25.1334 25.3075 24.5067 25.6408 24.0667C29.2008 19.32 29.2008 12.68 25.6408 7.93337C25.3075 7.49337 25.4008 6.8667 25.8408 6.53337C26.2808 6.20004 26.9075 6.29337 27.2408 6.73337C31.3341 12.1867 31.3341 19.8134 27.2408 25.2667C27.0541 25.5334 26.7475 25.6667 26.4408 25.6667Z" fill="white"/>
<path opacity="0.4" d="M20.9997 9.88004V22.12C20.9997 24.4134 20.173 26.1334 18.693 26.96C18.093 27.2934 17.4263 27.4534 16.733 27.4534C15.6663 27.4534 14.5197 27.0934 13.3463 26.36L9.45301 23.92C9.18634 23.76 8.87967 23.6667 8.57301 23.6667H7.33301V8.33337H8.57301C8.87967 8.33337 9.18634 8.24004 9.45301 8.08004L13.3463 5.64004C15.293 4.42671 17.1997 4.21337 18.693 5.04004C20.173 5.86671 20.9997 7.58671 20.9997 9.88004Z" fill="white"/>
<path d="M7.33366 8.33331V23.6666H6.66699C3.44033 23.6666 1.66699 21.8933 1.66699 18.6666V13.3333C1.66699 10.1066 3.44033 8.33331 6.66699 8.33331H7.33366Z" fill="white"/>
</svg>
