<svg width="32" height="32" viewBox="0 0 32 32" fill="none" xmlns="http://www.w3.org/2000/svg">
<path d="M24.0004 22.3334C23.787 22.3334 23.587 22.2667 23.4004 22.1334C22.9604 21.8 22.867 21.1734 23.2004 20.7334C24.8804 18.4934 25.2404 15.52 24.1604 12.9467C23.947 12.44 24.187 11.8534 24.6937 11.64C25.2004 11.4267 25.787 11.6667 26.0004 12.1734C27.3604 15.4 26.8937 19.1467 24.8004 21.9467C24.6004 22.2 24.307 22.3334 24.0004 22.3334Z" fill="white"/>
<path d="M26.4408 25.6667C26.2275 25.6667 26.0275 25.6 25.8408 25.4667C25.4008 25.1334 25.3075 24.5067 25.6408 24.0667C28.4941 20.2667 29.1208 15.1734 27.2808 10.7867C27.0675 10.28 27.3075 9.69335 27.8141 9.48002C28.3208 9.26669 28.9075 9.50669 29.1208 10.0134C31.2408 15.0534 30.5208 20.8934 27.2408 25.2667C27.0541 25.5334 26.7475 25.6667 26.4408 25.6667Z" fill="white"/>
<path opacity="0.4" d="M18.721 17.28C19.561 16.44 21.001 17.04 21.001 18.2267V22.1334C21.001 24.4267 20.1743 26.1467 18.6943 26.9734C18.0943 27.3067 17.4276 27.4667 16.7343 27.4667C15.6676 27.4667 14.521 27.1067 13.3476 26.3734L12.4943 25.84C11.7743 25.3867 11.6543 24.3734 12.2543 23.7734L18.721 17.28Z" fill="white"/>
<path opacity="0.4" d="M18.6937 5.04004C17.2003 4.21337 15.2937 4.42671 13.347 5.64004L9.45366 8.08004C9.18699 8.24004 8.88033 8.33337 8.57366 8.33337H7.33366H6.66699C3.44033 8.33337 1.66699 10.1067 1.66699 13.3334V18.6667C1.66699 21.8934 3.44033 23.6667 6.66699 23.6667H7.33366H8.33366L21.0003 11V9.88004C21.0003 7.58671 20.1737 5.86671 18.6937 5.04004Z" fill="white"/>
<path d="M29.0262 2.97334C28.6262 2.57334 27.9729 2.57334 27.5729 2.97334L2.97285 27.5867C2.57285 27.9867 2.57285 28.64 2.97285 29.04C3.17285 29.2267 3.42618 29.3333 3.69285 29.3333C3.95952 29.3333 4.21285 29.2267 4.41285 29.0267L29.0262 4.41334C29.4395 4.01334 29.4395 3.37334 29.0262 2.97334Z" fill="white"/>
</svg>
