<svg width="127" height="80" viewBox="0 0 127 80" fill="none" xmlns="http://www.w3.org/2000/svg">
<path d="M118.659 10.5423C118.659 10.6339 118.659 10.7485 118.636 10.8172C118.518 11.7105 118.518 12.6039 118.588 13.5201C118.636 13.7492 118.683 13.9783 118.872 14.1615C119.18 14.5051 119.652 14.4364 119.842 14.0241C119.936 13.8179 119.936 13.6118 119.889 13.4056C119.652 12.5352 119.605 11.6189 119.581 10.7256C119.581 10.6797 119.581 10.611 119.581 10.5423C119.842 10.5194 120.078 10.4965 120.291 10.4965C120.456 10.4736 120.598 10.4507 120.716 10.382C121.071 10.1987 121.071 9.80932 120.693 9.62606C120.551 9.55734 120.362 9.53442 120.196 9.53442C119.605 9.55734 119.014 9.55734 118.423 9.55734C118.21 9.55734 117.997 9.58025 117.785 9.60315C117.666 9.62606 117.524 9.62606 117.43 9.69478C117.264 9.76349 117.17 9.87802 117.17 10.0384C117.194 10.1987 117.264 10.2903 117.43 10.3591C117.524 10.4278 117.643 10.4507 117.761 10.4507C118.045 10.4736 118.352 10.5194 118.659 10.5423ZM125.161 11.596C125.161 11.6189 125.185 11.6418 125.185 11.6418C125.279 12.2603 125.374 12.8559 125.445 13.4514C125.469 13.6576 125.492 13.8408 125.634 14.0012C125.941 14.3906 126.414 14.3448 126.627 13.9325C126.722 13.7263 126.745 13.5201 126.698 13.2911C126.556 12.6039 126.485 11.9167 126.343 11.2524C126.249 10.8401 126.131 10.4507 126.012 10.0842C125.941 9.85513 125.776 9.69477 125.492 9.67187C125.208 9.62606 124.996 9.76349 124.877 9.96966C124.736 10.1529 124.617 10.3362 124.523 10.5423C124.357 10.9088 124.215 11.2753 124.026 11.6189C124.003 11.7105 123.979 11.7793 123.932 11.848C123.908 11.8022 123.884 11.7793 123.884 11.7793C123.577 11.2066 123.293 10.6339 122.986 10.0842C122.939 10.0384 122.915 9.99255 122.891 9.94674C122.75 9.74059 122.584 9.62606 122.324 9.62606C122.088 9.64896 121.898 9.7864 121.78 9.99255C121.733 10.0842 121.733 10.1529 121.709 10.2445C121.615 10.9775 121.496 11.7105 121.402 12.4435C121.355 12.8559 121.331 13.2682 121.331 13.6805C121.307 13.7721 121.331 13.8866 121.378 13.9783C121.426 14.1615 121.567 14.2761 121.756 14.299C121.993 14.3219 122.158 14.2531 122.229 14.0699C122.3 13.9325 122.324 13.8179 122.348 13.7034C122.442 13.2911 122.513 12.9017 122.584 12.5123C122.631 12.2832 122.655 12.0999 122.726 11.848C122.773 11.9396 122.82 12.0083 122.868 12.077C123.08 12.3519 123.293 12.6268 123.553 12.8559C123.813 13.0391 124.026 13.0162 124.239 12.81C124.286 12.7642 124.31 12.7413 124.357 12.6955C124.57 12.3748 124.83 12.0541 125.043 11.7334C125.09 11.6876 125.114 11.6418 125.161 11.596Z" fill="#1A1E23"/>
<path d="M70.6844 10.9925C70.5201 11.4279 70.4887 11.7415 70.5646 12.0022C70.6484 12.3567 70.8659 12.4727 71.1611 12.3825C73.9382 11.7172 80.0277 13.6057 82.2822 14.132C82.8139 14.2425 83.2465 13.5775 82.8837 12.9813C82.3541 12.4039 76.2673 9.93188 73.9448 9.79709C73.0345 9.74725 71.407 9.52108 70.6844 10.9925Z" fill="#1A1E23"/>
<path d="M94.4821 2.99075C94.778 3.15625 94.9435 3.31413 95.0251 3.49052C95.1468 3.72191 95.0826 3.882 94.8782 3.96369C93.0426 4.83169 90.5999 8.56861 89.6138 9.85744C89.3748 10.1539 88.8235 9.98163 88.7402 9.49407C88.7574 8.94279 90.9227 4.8874 92.1311 3.78285C92.606 3.35159 93.3906 2.50543 94.4821 2.99075Z" fill="#1A1E23"/>
<path d="M79.8651 1.15132C80.2207 0.891681 80.5902 0.800697 80.7789 0.969427C83.5485 3.26427 85.0173 6.89836 85.9267 10.2253C85.9609 10.3028 85.9631 10.414 85.9357 10.53C85.9244 10.6292 85.8496 10.734 85.7308 10.815C85.6039 10.9045 85.4947 10.9318 85.4433 10.8547C84.2295 9.25507 77.2964 3.03124 79.8651 1.15132Z" fill="#1A1E23"/>
<path d="M21.215 40.9387C21.8788 40.4599 22.6005 40.0613 23.3641 39.7519C24.1631 39.5307 25.0147 39.5673 25.7903 39.8566C26.5656 40.1459 27.2229 40.6719 27.6623 41.3552C28.0554 42.0367 28.2092 42.8236 28.1007 43.5972C27.9922 44.3707 27.6272 45.0892 27.0605 45.6445C26.6213 46.0945 26.1226 46.4865 25.5778 46.8105C23.1493 48.3305 20.6992 49.7671 18.2493 51.2871C17.7479 51.6676 17.2161 52.0088 16.6589 52.3075C15.8113 52.717 14.8427 52.8266 13.9205 52.6175C12.9982 52.4085 12.1805 51.8937 11.6085 51.1623C11.1809 50.6444 10.8201 50.0781 10.5339 49.4757C8.21291 44.7492 5.80592 40.0434 3.57084 35.2335C2.53926 33.1515 1.70111 30.7569 0.884451 28.4457C0.531125 27.7742 0.462129 26.9957 0.692153 26.2756C0.922177 25.5555 1.43307 24.9508 2.11617 24.59C2.79926 24.2292 3.60065 24.141 4.34991 24.3439C5.09917 24.5468 5.7372 25.0249 6.12827 25.6764C7.33033 27.2241 8.3944 28.8681 9.30896 30.5904C11.63 34.7547 13.8436 38.919 16.0787 42.9584C16.2088 43.1817 16.3523 43.397 16.5085 43.6039C18.1907 42.9186 19.773 42.0226 21.215 40.9387Z" fill="#1A1E23"/>
<path d="M45.2138 39.486C39.9056 45.5034 31.0082 43.9833 26.5381 36.2377C23.3573 30.7408 22.7986 21.6625 29.7188 15.9365C31.1966 14.7377 32.9636 13.9211 34.8551 13.5628C37.1743 13.2407 39.5393 13.6371 41.612 14.6954C43.6847 15.7537 45.359 17.4197 46.3959 19.4554C50.1783 26.1184 49.641 34.6136 45.2138 39.486ZM43.0647 25.4521C42.5007 23.8147 41.3694 22.4169 39.8625 21.4958C39.0098 20.907 37.9737 20.6207 36.9287 20.6852C35.8835 20.7497 34.8933 21.161 34.1244 21.8498C31.0513 24.4943 30.4064 30.7617 32.6415 34.4887C32.9264 35.0965 33.3447 35.6366 33.8676 36.0713C34.3905 36.506 35.005 36.8247 35.6683 37.0051C36.3316 37.1857 37.0274 37.2236 37.7075 37.1162C38.3875 37.0087 39.0349 36.7587 39.6048 36.3834C41.2707 35.132 42.4928 33.409 43.1013 31.4537C43.7099 29.4983 43.6746 27.4078 43.0003 25.473L43.0647 25.4521Z" fill="#1A1E23"/>
<path d="M66.8759 28.0746C66.3325 28.1879 65.7711 28.1947 65.2248 28.0945C64.6787 27.9943 64.1585 27.7894 63.6953 27.4917C63.29 27.267 62.9411 26.9582 62.6736 26.5873C62.4063 26.2164 62.2272 25.7927 62.1491 25.3466C62.0709 24.9007 62.0959 24.4435 62.2219 24.0079C62.3481 23.5723 62.5725 23.1692 62.8787 22.8275C63.4122 22.141 64.1695 21.6495 65.0278 21.4325C67.2686 20.8025 69.5754 20.4183 71.9049 20.2874C72.4168 20.2297 72.9353 20.2717 73.4301 20.4108C73.925 20.5501 74.386 20.7835 74.7865 21.0979C75.1868 21.412 75.5184 21.8006 75.7617 22.2407C76.0049 22.6807 76.155 23.1635 76.2031 23.6605C76.8747 26.1019 76.9482 28.6617 76.418 31.1356C74.4839 39.131 67.8216 41.8794 60.3426 39.3184C58.2433 38.6337 56.4026 37.3578 55.0559 35.6538C53.2597 33.6018 51.9862 31.1699 51.3379 28.5536C50.8127 26.2239 50.8702 23.8064 51.5058 21.5027C52.1413 19.199 53.3365 17.076 54.9914 15.311C56.5619 13.3926 58.6003 11.8828 60.923 10.9176C62.3906 10.1338 64.1081 9.91096 65.737 10.2929C66.1065 10.392 66.4419 10.5851 66.7085 10.8521C66.975 11.1191 67.163 11.4504 67.2529 11.8115C67.3429 12.1726 67.3313 12.5505 67.2198 12.9059C67.108 13.2612 66.9004 13.5812 66.6182 13.8326C66.0814 14.3033 65.4984 14.7217 64.8773 15.0819C62.9667 16.2608 61.304 17.7798 59.9773 19.5586C59.1077 20.7096 58.5088 22.0314 58.2229 23.4307C57.9369 24.8299 57.971 26.273 58.3226 27.6583C58.81 29.5471 59.8915 31.2425 61.4172 32.5097C66.1452 36.6741 72.2917 32.6554 71.2172 26.9711C69.6484 27.346 68.2729 27.7416 66.8759 28.0746Z" fill="#1A1E23"/>
<path d="M95.7597 39.819C88.7751 43.9835 80.8235 39.819 79.0826 31.074C77.8147 24.8275 80.2217 16.0823 88.6463 12.7508C90.4387 12.0572 92.3829 11.8137 94.2984 12.0429C96.5998 12.451 98.711 13.5487 100.334 15.1812C101.957 16.8137 103.011 18.8985 103.346 21.142C104.764 28.5753 101.541 36.5084 95.7597 39.819ZM98.1883 25.806C98.1862 24.0763 97.5546 22.4025 96.4046 21.0795C95.7898 20.2612 94.9011 19.6748 93.89 19.4204C92.8787 19.166 91.8079 19.2593 90.8597 19.6845C87.0773 21.2668 84.4124 27.0136 85.3796 31.2406C85.4535 31.9039 85.6759 32.5436 86.0315 33.1149C86.3871 33.6863 86.8672 34.1754 87.4384 34.5483C88.0093 34.9211 88.6576 35.1686 89.3376 35.2734C90.0178 35.3781 90.7134 35.3377 91.3755 35.155C93.3749 34.4783 95.106 33.2137 96.3272 31.5376C97.5487 29.8615 98.1993 27.8577 98.1883 25.806Z" fill="#1A1E23"/>
<path d="M110.409 41.5674C110.304 42.3295 109.89 43.0197 109.259 43.4864C108.629 43.9529 107.832 44.1577 107.046 44.0556C106.259 43.9534 105.547 43.5526 105.065 42.9415C104.584 42.3305 104.372 41.559 104.478 40.7969C104.583 40.0349 104.997 39.3446 105.627 38.8779C106.258 38.4113 107.055 38.2066 107.841 38.3088C108.628 38.4109 109.34 38.8115 109.822 39.4227C110.303 40.0338 110.515 40.8053 110.409 41.5674ZM108.539 13.4788C108.948 12.874 109.548 12.4134 110.249 12.1657C110.95 11.9181 111.715 11.8966 112.429 12.1046C113.156 12.2807 113.798 12.6932 114.248 13.2732C114.698 13.8531 114.928 14.5653 114.901 15.2903C114.806 16.4532 114.627 17.6082 114.364 18.7466C113.654 22.5987 112.967 26.4507 112.215 30.2611C111.871 31.7812 111.419 33.2387 110.925 34.7794C110.753 35.2611 110.466 35.6963 110.087 36.0496C109.851 36.3153 109.551 36.5191 109.212 36.6421C108.874 36.7654 108.509 36.8038 108.151 36.7539C107.793 36.7041 107.454 36.5677 107.165 36.3573C106.876 36.1467 106.647 35.869 106.498 35.5498C106.242 34.9773 106.104 34.362 106.09 33.7384C106.09 31.1564 106.09 28.5538 106.261 25.9509C106.554 22.2366 107.128 18.548 107.981 14.9155C108.081 14.4288 108.27 13.9634 108.539 13.5413V13.4788Z" fill="#1A1E23"/>
<path fill-rule="evenodd" clip-rule="evenodd" d="M12.1342 58.2992C11.8805 58.848 11.8109 59.4598 11.9349 60.0487C12.0174 60.8248 12.1986 61.5883 12.4743 62.3216C12.8186 63.2196 13.2038 64.1076 13.6789 65.202C13.7881 65.4538 13.9023 65.7167 14.0217 65.9934C14.6623 67.476 15.4661 69.3709 16.5382 72.1132C16.8416 72.8923 17.1111 73.6777 17.3825 74.4685C17.4921 74.788 17.6021 75.1086 17.7147 75.4299C18.1184 76.5722 18.8129 77.5984 19.7335 78.4117C20.1245 78.8587 20.643 79.1845 21.2244 79.3474C21.8172 79.5135 22.4477 79.5029 23.0341 79.3172C23.6206 79.1313 24.1357 78.7787 24.5126 78.3053C24.8821 77.8411 25.1018 77.2817 25.1445 76.6974C25.3842 75.559 25.3024 74.3787 24.9073 73.2812C24.2803 71.459 23.566 69.6342 22.7423 67.8493L22.7385 67.8414C21.3836 65.0489 20.0062 62.2757 18.5637 59.5015L18.5529 59.482C18.1306 58.7592 17.5818 58.1131 16.9312 57.5726C16.5088 57.0903 15.9262 56.7649 15.2827 56.6527C14.6256 56.5382 13.9478 56.6536 13.3705 56.9785C12.8243 57.2806 12.3914 57.743 12.1342 58.2992Z" fill="#1A1E23"/>
<path fill-rule="evenodd" clip-rule="evenodd" d="M32.8293 51.423C30.7047 50.8899 28.4858 50.8122 26.3274 51.1955C24.6555 51.3549 23.0113 51.7286 21.8695 52.4687C21.2888 52.8453 20.8193 53.3289 20.5581 53.9437C20.2955 54.5618 20.262 55.2687 20.4772 56.0563C20.8701 57.4989 21.3804 58.9016 21.8888 60.2998L21.9712 60.5263L21.9731 60.5313C23.504 64.5932 25.0495 68.6414 26.6091 72.6757C26.7909 73.3115 27.0481 73.9248 27.3754 74.5032L27.3816 74.514C27.8139 75.2326 28.3685 75.8754 29.0219 76.4153C29.3486 76.7121 29.7527 76.9175 30.1908 77.0093C30.6333 77.1018 31.0935 77.075 31.5211 76.9314C31.949 76.788 32.3279 76.5335 32.6166 76.1956C32.9006 75.8632 33.0866 75.4628 33.155 75.0367C33.4368 73.879 33.3465 72.6655 32.896 71.5589C32.7554 71.1866 32.6451 70.806 32.5288 70.4054C32.4901 70.2718 32.4508 70.1359 32.4093 69.9975C35.9792 68.6455 39.7776 66.8276 41.1133 62.5985C41.6363 61.1371 41.68 59.5545 41.238 58.0679C40.7957 56.5797 39.8883 55.2606 38.6407 54.2923C36.9427 52.9367 34.9593 51.9573 32.8293 51.423ZM26.9402 56.6102C27.0105 56.5906 27.0813 56.5724 27.1523 56.5554C29.4764 56.2014 31.8542 56.6731 33.8479 57.8833C34.7266 58.4753 35.0865 59.1331 35.1483 59.766C35.2121 60.4177 34.9676 61.1239 34.4762 61.8027C33.5479 63.085 31.8537 64.1114 30.3233 64.3027C29.2077 61.8134 28.0747 59.2234 26.9402 56.6102Z" fill="#1A1E23"/>
<path d="M46.9942 46.8668C49.5243 45.7347 52.6584 45.5392 55.1108 46.3352C55.7285 46.5095 56.2643 46.8865 56.6268 47.4017C56.9869 47.9138 57.153 48.5308 57.0975 49.1477C57.0939 49.5481 56.9925 49.9421 56.8016 50.2975C56.6073 50.6593 56.326 50.9704 55.9814 51.2047C55.6368 51.4388 55.239 51.5894 54.8217 51.6432C54.4043 51.6971 53.9799 51.6528 53.5839 51.514L53.5538 51.5035L53.5255 51.489C53.3229 51.3863 53.1077 51.309 52.8851 51.2586L52.8711 51.2556C51.1459 50.8116 49.5186 51.5473 48.9242 52.4511C48.6407 52.8821 48.6055 53.3171 48.8416 53.7129C49.0945 54.1367 49.7147 54.6123 50.9696 54.9513C51.3148 55.0431 51.6686 55.1316 52.0274 55.2216C53.0198 55.4706 54.0511 55.7292 55.0483 56.0877L55.0521 56.0891C59.6527 57.785 61.3658 61.2974 60.7793 64.6011C60.1992 67.8681 57.383 70.8413 53.1481 71.5426C51.6071 71.8736 50.0034 71.8091 48.4958 71.3557C46.9843 70.9008 45.6219 70.0709 44.544 68.9479L44.5159 68.9186C44.1756 68.4955 43.9467 67.9984 43.8452 67.4711C43.7519 66.9951 43.8011 66.5033 43.9867 66.0534C44.1713 65.6062 44.4834 65.2192 44.8862 64.9372C45.3118 64.6175 45.8247 64.4257 46.3616 64.3857C46.8967 64.3458 47.4322 64.4585 47.9021 64.7096C48.3714 64.9293 48.8079 65.2095 49.1997 65.5428L49.2071 65.5489C49.9003 66.163 50.7389 66.3231 51.5431 66.1748C52.359 66.0244 53.1263 65.5567 53.6198 64.9361C54.11 64.3194 54.3068 63.5868 54.0732 62.8757C53.8382 62.1593 53.1315 61.3567 51.5788 60.6857C51.1729 60.5188 50.7521 60.3841 50.3143 60.253C50.1963 60.2176 50.0762 60.1825 49.9547 60.1467C49.631 60.0516 49.298 59.9535 48.9714 59.8455C48.7465 59.7712 48.5233 59.7008 48.3024 59.631C47.6984 59.4404 47.1096 59.2547 46.5429 59.0055C45.3096 58.5987 44.2441 57.8175 43.5049 56.7776C42.7627 55.7335 42.3893 54.4849 42.4401 53.2184C42.4441 50.1317 44.4506 48.0052 46.9942 46.8668Z" fill="#1A1E23"/>
<path d="M79.0722 46.539C78.5816 46.3068 78.0391 46.1966 77.4938 46.2182C76.9482 46.24 76.4169 46.3929 75.9477 46.6635C75.4815 46.9321 75.0911 47.3082 74.8114 47.7584C74.5549 48.1376 74.3774 48.5616 74.2889 49.0068C74.2004 49.4517 74.2025 49.9089 74.295 50.3527C74.3864 50.9231 74.4877 51.4778 74.5877 52.0249C74.7533 52.9302 74.9144 53.8151 75.0208 54.7174L75.0247 54.7402C75.2668 56.1552 75.3935 57.5863 75.4049 59.0204L75.4059 59.0408C75.4887 60.5895 74.944 62.1081 73.8887 63.2743L73.872 63.295C73.5286 63.7214 73.0696 64.0467 72.546 64.2348C72.0226 64.4229 71.4556 64.4661 70.9082 64.3596C70.3609 64.2532 69.855 64.0014 69.4469 63.6322C69.0389 63.2631 68.7445 62.7898 68.5977 62.2681C68.284 61.1685 68.1026 60.0375 68.0564 58.8977L68.5921 50.6354C68.6 50.5275 68.609 50.4168 68.6182 50.305C68.6386 50.0541 68.6595 49.7985 68.6681 49.5601C68.6807 49.2093 68.6699 48.8486 68.5856 48.5071C68.4992 48.1581 68.3351 47.8261 68.0438 47.5434C67.7554 47.2636 67.3661 47.0571 66.8763 46.9165C65.9904 46.6681 65.2414 46.676 64.6172 46.9326C63.9927 47.1893 63.5648 47.6657 63.262 48.2162C62.9616 48.762 62.7686 49.4081 62.6226 50.0553C62.5143 50.5356 62.4272 51.0397 62.3445 51.5196C62.3158 51.685 62.2879 51.8473 62.2596 52.005L62.2589 52.0097C61.8162 54.6414 61.6845 57.3136 61.8662 59.9743C61.9 61.4121 62.2095 62.8314 62.779 64.1596C63.4216 65.8734 64.5853 67.3582 66.1168 68.4182C67.6514 69.4803 69.4828 70.0655 71.3684 70.0964C73.254 70.1273 75.1048 69.6025 76.6757 68.5914C78.2441 67.5818 79.4595 66.1349 80.1614 64.442C81.1431 62.2855 81.6041 59.9402 81.509 57.5849C81.4513 55.8654 81.3547 54.1326 81.2586 52.4087C81.2114 51.563 81.1644 50.7192 81.1222 49.8805C81.1009 49.0395 80.8147 48.2249 80.3018 47.5461C79.9844 47.1169 79.5619 46.7708 79.0722 46.539Z" fill="#1A1E23"/>
<path d="M96.4356 59.4933C96.3858 59.5545 96.3334 59.6179 96.2786 59.6838C95.8795 57.4536 95.5097 55.224 95.1393 52.991C95.0065 52.1899 94.8729 51.3853 94.7387 50.583L94.7235 50.4936L94.6745 50.4162C94.582 50.2707 94.5729 50.128 94.5729 49.8237V49.7885L94.5673 49.7536C94.4671 49.1252 94.1736 48.5403 93.7254 48.0756C93.2784 47.6121 92.6979 47.2896 92.0593 47.1496C91.4218 46.9972 90.7519 47.0308 90.1339 47.2462C89.5175 47.461 88.9802 47.8472 88.5891 48.3562C88.264 48.7467 87.9974 49.18 87.7977 49.6429C87.3444 50.6402 86.8872 51.64 86.4287 52.6424L86.4208 52.6597C85.2761 55.1624 84.1237 57.6818 83.0048 60.221L83.0014 60.2293C82.3145 61.8757 81.7475 63.6106 81.1825 65.3401C81.0696 65.6853 80.9568 66.0304 80.8431 66.3745C80.6391 66.9203 80.5499 67.5 80.5805 68.0795C80.5434 68.5984 80.6715 69.1159 80.948 69.5622C81.2299 70.0176 81.6522 70.3759 82.1552 70.5868C82.6883 70.8133 83.2843 70.8613 83.849 70.7235C84.4124 70.5858 84.9127 70.2707 85.2712 69.8278C85.729 69.2822 86.1228 68.6871 86.444 68.0567C87.3918 66.1782 88.2977 64.2769 89.1994 62.3838C89.5483 61.6516 89.8873 60.9958 90.273 60.2816C90.2995 60.3696 90.3266 60.4555 90.3545 60.5416C90.7588 62.266 91.4411 63.9176 92.3764 65.436C92.5533 65.7576 92.7999 66.0388 93.0991 66.26C93.4019 66.484 93.7514 66.6411 94.1232 66.721C94.495 66.8008 94.8803 66.8012 95.2523 66.722C95.6238 66.6431 95.9743 66.4858 96.2773 66.2629L96.8769 65.828L101.531 62.0298L101.256 63.7292C100.878 66.065 100.503 68.3814 100.105 70.6983C99.8443 71.7252 99.8447 72.7978 100.106 73.8244C100.219 74.4021 100.508 74.934 100.934 75.3523C101.365 75.7739 101.916 76.0604 102.516 76.1747C103.117 76.2888 103.739 76.2256 104.302 75.9929C104.857 75.7637 105.329 75.3805 105.658 74.892C106.426 73.9696 106.903 72.8528 107.035 71.6746C107.232 70.0109 107.455 68.3244 107.679 66.6385C107.936 64.6952 108.193 62.7524 108.41 60.847L108.411 60.8411C108.62 58.7553 108.721 56.661 108.714 54.5653C108.76 53.9031 108.59 53.2434 108.227 52.6796C107.863 52.1138 107.324 51.6739 106.687 51.4223C106.025 51.1304 105.283 51.0524 104.571 51.1999C103.864 51.3463 103.224 51.7075 102.744 52.2306C101.886 52.9998 101.081 53.8229 100.333 54.6946L100.328 54.7005C99.5128 55.6851 98.7029 56.689 97.8981 57.6864C97.4088 58.2928 96.9209 58.8977 96.4356 59.4933Z" fill="#1A1E23"/>
</svg>
