<svg width="122" height="56" viewBox="0 0 122 56" fill="none" xmlns="http://www.w3.org/2000/svg">
<path d="M33.9281 0.953613C28.438 0.953613 23.1729 3.13452 19.2909 7.01656L6.62154 19.6859C2.7395 23.5679 0.558594 28.8331 0.558594 34.3231C0.558594 45.7556 9.8264 55.0234 21.2588 55.0234C26.7489 55.0234 32.014 52.8424 35.8961 48.9604L44.6595 40.1969C44.6595 40.1967 44.6597 40.1971 44.6595 40.1969L70.1932 14.6632C72.0473 12.8091 74.5619 11.7676 77.1839 11.7676C81.5737 11.7676 85.2953 14.6286 86.5856 18.5877L94.644 10.5293C90.9678 4.77155 84.5217 0.953613 77.1839 0.953613C71.6939 0.953613 66.4287 3.13452 62.5467 7.01656L28.2495 41.3138C26.3955 43.1679 23.8809 44.2094 21.2588 44.2094C15.7988 44.2094 11.3725 39.7833 11.3725 34.3231C11.3725 31.7011 12.4141 29.1865 14.2682 27.3325L26.9374 14.6632C28.7915 12.8091 31.3061 11.7676 33.9281 11.7676C38.318 11.7676 42.0395 14.6287 43.3298 18.5879L51.3883 10.5295C47.7121 4.77166 41.2661 0.953613 33.9281 0.953613Z" fill="#1A1E23"/>
<path d="M52.0476 41.3138C50.1936 43.1679 47.679 44.2094 45.057 44.2094C40.6678 44.2094 36.9465 41.3491 35.6559 37.3907L27.5977 45.4489C31.274 51.2059 37.7197 55.0234 45.057 55.0234C50.547 55.0234 55.8122 52.8424 59.6942 48.9604L93.9914 14.6632C95.8454 12.8091 98.36 11.7676 100.982 11.7676C106.442 11.7676 110.868 16.1938 110.868 21.6539C110.868 24.2759 109.827 26.7905 107.973 28.6445L95.3034 41.3138C93.4494 43.1679 90.9348 44.2094 88.3128 44.2094C83.9232 44.2094 80.2018 41.3486 78.9113 37.3898L70.8531 45.4482C74.5293 51.2057 80.9751 55.0234 88.3128 55.0234C93.8028 55.0234 99.068 52.8424 102.95 48.9604L115.619 36.2911C119.501 32.4091 121.682 27.1439 121.682 21.6539C121.682 10.2214 112.415 0.953613 100.982 0.953613C95.492 0.953613 90.2268 3.13452 86.3448 7.01656L52.0476 41.3138Z" fill="#1A1E23"/>
</svg>
