<svg width="67" height="67" viewBox="0 0 67 67" fill="none" xmlns="http://www.w3.org/2000/svg">
<path fill-rule="evenodd" clip-rule="evenodd" d="M23.0903 0.0698242C19.3489 0.0698242 15.7609 1.55608 13.1153 4.20162L0.349609 16.9672V22.8105C0.349609 26.9388 2.12289 30.6529 4.94931 33.2326C2.12289 35.8123 0.349609 39.5264 0.349609 43.6547V49.498L13.1153 62.2636C15.7609 64.9092 19.3489 66.3954 23.0903 66.3954C27.2186 66.3954 30.9327 64.6222 33.5124 61.7957C36.0921 64.6222 39.8062 66.3954 43.9345 66.3954C47.6759 66.3954 51.2639 64.9092 53.9095 62.2636L66.6752 49.498V43.6547C66.6752 39.5264 64.902 35.8123 62.0755 33.2326C64.902 30.6529 66.6752 26.9388 66.6752 22.8105V16.9672L53.9095 4.20162C51.2639 1.55608 47.6759 0.0698242 43.9345 0.0698242C39.8062 0.0698242 36.0921 1.8431 33.5124 4.66952C30.9327 1.8431 27.2186 0.0698242 23.0903 0.0698242ZM43.0613 33.2326C42.9023 33.0875 42.7463 32.9384 42.5934 32.7856L33.5124 23.7046L24.4314 32.7856C24.2786 32.9384 24.1225 33.0875 23.9635 33.2326C24.1225 33.3777 24.2786 33.5268 24.4314 33.6796L33.5124 42.7606L42.5934 33.6796C42.7463 33.5268 42.9023 33.3777 43.0613 33.2326ZM37.1971 49.498V52.2886C37.1971 56.0095 40.2136 59.026 43.9345 59.026C45.7213 59.026 47.435 58.3161 48.6985 57.0526L59.3058 46.4453V43.6547C59.3058 39.9338 56.2893 36.9173 52.5684 36.9173C50.7816 36.9173 49.0679 37.6272 47.8044 38.8907L37.1971 49.498ZM29.8277 49.498L19.2204 38.8907C17.9569 37.6272 16.2433 36.9173 14.4564 36.9173C10.7355 36.9173 7.71911 39.9338 7.71911 43.6547V46.4453L18.3263 57.0526C19.5898 58.3161 21.3035 59.026 23.0903 59.026C26.8112 59.026 29.8277 56.0095 29.8277 52.2886V49.498ZM29.8277 14.1766V16.9672L19.2204 27.5745C17.9569 28.838 16.2433 29.5479 14.4564 29.5479C10.7355 29.5479 7.71911 26.5314 7.71911 22.8105V20.0199L18.3263 9.41264C19.5898 8.14916 21.3035 7.43934 23.0903 7.43934C26.8112 7.43934 29.8277 10.4557 29.8277 14.1766ZM47.8044 27.5745L37.1971 16.9672V14.1766C37.1971 10.4557 40.2136 7.43934 43.9345 7.43934C45.7213 7.43934 47.435 8.14916 48.6985 9.41264L59.3058 20.0199V22.8105C59.3058 26.5314 56.2893 29.5479 52.5684 29.5479C50.7816 29.5479 49.0679 28.838 47.8044 27.5745Z" fill="#1A1E23"/>
</svg>
