<svg width="184" height="44" viewBox="0 0 184 44" fill="none" xmlns="http://www.w3.org/2000/svg">
<path fill-rule="evenodd" clip-rule="evenodd" d="M11.6518 3.27954V43.6516H0.837891V3.27954H11.6518Z" fill="#1A1E23"/>
<path fill-rule="evenodd" clip-rule="evenodd" d="M17.4199 3.27954H40.1159C47.4892 3.27954 53.4664 9.30461 53.4664 16.7369C53.4664 24.1692 47.4892 30.1943 40.1159 30.1943H28.1004V43.6516H17.4199V3.27954ZM28.1004 19.4284H40.1159C41.5906 19.4284 42.786 18.2234 42.786 16.7369C42.786 15.2505 41.5906 14.0454 40.1159 14.0454H28.1004V19.4284Z" fill="#1A1E23"/>
<path fill-rule="evenodd" clip-rule="evenodd" d="M94.4834 3.27954V24.1385C94.4834 28.9694 98.3899 32.8857 103.209 32.8857C108.028 32.8857 111.935 28.9694 111.935 24.1385V3.27954H122.674V24.1385C122.674 34.9153 113.959 43.6516 103.209 43.6516C92.4588 43.6516 83.7441 34.9153 83.7441 24.1385V3.27954H94.4834Z" fill="#1A1E23"/>
<path fill-rule="evenodd" clip-rule="evenodd" d="M57.7925 22.1199C57.7925 11.7146 66.2652 3.27954 76.7169 3.27954H79.4204V14.0454H76.7169C72.2376 14.0454 68.6064 17.6605 68.6064 22.1199V23.4656C68.6064 34.614 59.5285 43.6516 48.3302 43.6516H46.9785V32.8857H48.3302C53.5561 32.8857 57.7925 28.6682 57.7925 23.4656V22.1199Z" fill="#1A1E23"/>
<path d="M183.954 4.36038C183.954 6.55026 182.018 8.3255 179.628 8.3255C177.239 8.3255 175.303 6.55026 175.303 4.36038C175.303 2.1705 177.239 0.395264 179.628 0.395264C182.018 0.395264 183.954 2.1705 183.954 4.36038Z" fill="#1A1E23"/>
<path d="M134.459 43.6516L139.594 21.9534L143.412 35.0071C145.688 42.7928 156.617 42.7928 158.893 35.0071L162.71 21.9534L167.845 43.6516H178.908L170.834 9.53222C168.914 1.41835 157.584 1.11793 155.243 9.11895L151.153 23.1101L147.061 9.11896C144.722 1.11798 133.39 1.41831 131.47 9.53221L123.396 43.6516H134.459Z" fill="#1A1E23"/>
</svg>
