<svg width="110" height="77" viewBox="0 0 110 77" fill="none" xmlns="http://www.w3.org/2000/svg">
<path d="M7.25249 71.349V55.0459H4.5625V71.349H7.25249Z" fill="#1A1E23"/>
<path d="M8.89844 65.9154C8.89844 69.246 11.1475 71.6126 14.565 71.6126C17.9826 71.6126 20.2316 69.246 20.2316 65.9154C20.2316 62.5845 17.9826 60.218 14.565 60.218C11.1475 60.218 8.89844 62.5845 8.89844 65.9154ZM11.6105 65.9154C11.6105 63.9651 12.7791 62.6065 14.565 62.6065C16.351 62.6065 17.5196 63.9651 17.5196 65.9154C17.5196 67.8436 16.351 69.2241 14.565 69.2241C12.7791 69.2241 11.6105 67.8436 11.6105 65.9154Z" fill="#1A1E23"/>
<path d="M21.1367 65.6956C21.1367 68.8511 23.1872 71.1301 26.2521 71.1301C27.8396 71.1301 29.2067 70.4945 29.8901 69.4428V71.2834C29.8901 73.0583 28.7657 74.2417 26.8915 74.2417C25.2158 74.2417 24.0692 73.4308 23.9149 72.0065H21.2029C21.5556 74.8333 23.7385 76.6739 26.7371 76.6739C30.2651 76.6739 32.514 74.3731 32.514 70.8013V60.5243H30.1327L29.9784 61.9924C29.3169 60.8529 27.9499 60.1736 26.3402 60.1736C23.2313 60.1736 21.1367 62.5183 21.1367 65.6956ZM23.8708 65.6299C23.8708 63.833 25.0174 62.5183 26.7152 62.5183C28.5673 62.5183 29.802 63.855 29.802 65.6299C29.802 67.4267 28.5673 68.8072 26.7152 68.8072C25.0394 68.8072 23.8708 67.4487 23.8708 65.6299Z" fill="#1A1E23"/>
<path d="M33.8457 65.9154C33.8457 69.246 36.0947 71.6126 39.5123 71.6126C42.9299 71.6126 45.1789 69.246 45.1789 65.9154C45.1789 62.5845 42.9299 60.218 39.5123 60.218C36.0947 60.218 33.8457 62.5845 33.8457 65.9154ZM36.5577 65.9154C36.5577 63.9651 37.7264 62.6065 39.5123 62.6065C41.2982 62.6065 42.4669 63.9651 42.4669 65.9154C42.4669 67.8436 41.2982 69.2241 39.5123 69.2241C37.7264 69.2241 36.5577 67.8436 36.5577 65.9154Z" fill="#1A1E23"/>
<path d="M48.0895 58.3104C48.9715 58.3104 49.6991 57.6091 49.6991 56.7107C49.6991 55.8342 48.9715 55.1331 48.0895 55.1331C47.1855 55.1331 46.502 55.8342 46.502 56.7107C46.502 57.6091 47.1855 58.3104 48.0895 58.3104ZM46.7445 71.3485H49.4346V60.5236H46.7445V71.3485Z" fill="#1A1E23"/>
<path d="M51.791 76.3669H54.4148V69.8589C55.0983 70.9764 56.5756 71.6338 58.2073 71.6338C61.4264 71.6338 63.3447 69.1795 63.3005 65.8049C63.2344 62.4085 61.2721 60.1953 58.1852 60.1953C56.5316 60.1953 55.0322 60.9184 54.3707 62.1675L54.2164 60.5241H51.791V76.3669ZM54.525 65.9364C54.525 63.9863 55.7157 62.6276 57.5898 62.6276C59.464 62.6276 60.5885 64.0081 60.5885 65.9364C60.5885 67.8648 59.464 69.2233 57.5898 69.2233C55.7157 69.2233 54.525 67.8867 54.525 65.9364Z" fill="#1A1E23"/>
<path d="M63.9844 68.1058C64.0726 70.2533 65.7483 71.6338 68.3501 71.6338C70.9078 71.6338 72.6496 70.2752 72.6496 68.1716C72.6496 66.6158 71.6795 65.5639 69.8936 65.1257L67.9753 64.6655C67.1595 64.4464 66.6082 64.1615 66.6082 63.4604C66.6082 62.7153 67.2035 62.1894 68.1737 62.1894C69.188 62.1894 69.8495 62.7591 69.8495 63.7014H72.2969C72.2086 61.5539 70.5991 60.1953 68.2398 60.1953C65.9027 60.1953 64.1608 61.5539 64.1608 63.6137C64.1608 65.0162 64.9766 66.1775 67.0713 66.7253L68.9675 67.2074C69.6731 67.4046 70.1141 67.7333 70.1141 68.3469C70.1141 69.2015 69.2982 69.5959 68.306 69.5959C67.1154 69.5959 66.4318 69.048 66.4318 68.1058H63.9844Z" fill="#1A1E23"/>
<path d="M78.2292 71.6344C79.7065 71.6344 81.1176 70.955 81.757 69.9471L81.9334 71.3495H84.447V60.5247H81.757V66.2C81.757 68.1502 81.0073 69.2459 79.2435 69.2459C77.8764 69.2459 76.9283 68.5885 76.9283 66.3534V60.5247H74.2383V67.2957C74.2383 69.8813 75.6494 71.6344 78.2292 71.6344Z" fill="#1A1E23"/>
<path d="M89.5102 71.3489V65.1257C89.5102 63.3727 90.5465 62.54 91.8254 62.54C93.1042 62.54 93.9421 63.3507 93.9421 64.8847V71.3489H96.566V65.1476C96.566 63.3727 97.5802 62.54 98.8591 62.54C100.16 62.54 100.998 63.3507 100.998 64.8847V71.3489H103.6V64.2711C103.6 61.7731 102.21 60.1953 99.5646 60.1953C97.9109 60.1953 96.61 60.9842 96.0809 62.2552C95.4856 60.9842 94.2949 60.1953 92.4869 60.1953C91.208 60.1953 90.0615 60.7869 89.4221 61.7511L89.2897 60.5241H86.8203V71.3489H89.5102Z" fill="#1A1E23"/>
<path d="M47.5371 40.2875C43.9933 46.6242 36.7778 49.6391 29.4818 49.6391H0.208984C30.6821 45.8542 51.9045 30.7147 54.6253 9.62744C57.3462 30.7147 78.5686 45.8542 109.042 49.6391H79.7689C72.4729 49.6391 65.2574 46.6242 61.7136 40.2875C57.8779 33.429 55.4342 25.6682 54.6253 17.1972C53.8165 25.6682 51.3728 33.429 47.5371 40.2875Z" fill="#1A1E23"/>
<path d="M30.7967 38.0484C29.0872 39.0047 27.2891 39.9029 25.4063 40.7396C24.3368 37.0687 23.9433 33.2173 24.2571 29.3807C24.6723 24.3052 26.3128 19.412 29.0332 15.1348C31.7536 10.8575 35.47 7.32805 39.8531 4.8591C44.2362 2.39017 49.1509 1.05792 54.1617 0.980396C59.1724 0.90286 64.1246 2.08244 68.5797 4.41463C73.0348 6.74681 76.8551 10.1596 79.7023 14.3507C82.5496 18.5419 84.3359 23.382 84.903 28.4423C85.3667 32.5813 85.0032 36.7633 83.8447 40.7396C81.9619 39.9029 80.1638 39.0046 78.4543 38.0483C79.175 35.1413 79.377 32.1171 79.0412 29.1208C78.5839 25.0401 77.1434 21.137 74.8475 17.7574C72.5515 14.3777 69.4707 11.6255 65.8782 9.74487C62.2856 7.86418 58.2921 6.91299 54.2514 6.9755C50.2107 7.03802 46.2476 8.11234 42.7131 10.1032C39.1785 12.0942 36.1816 14.9403 33.9879 18.3895C31.7941 21.8388 30.4713 25.7846 30.1365 29.8775C29.9114 32.6286 30.1374 35.3892 30.7967 38.0484Z" fill="#1A1E23"/>
</svg>
