<svg width="198" height="45" viewBox="0 0 198 45" fill="none" xmlns="http://www.w3.org/2000/svg">
<path d="M34.5294 18.9238C38.4294 18.9238 39.3068 20.6083 39.3068 22.7093C39.3068 24.9364 38.2455 26.5319 34.5456 26.5319C30.8693 26.5319 29.8066 25.0291 29.8066 22.7093C29.8066 20.4267 30.965 18.9238 34.5294 18.9238Z" fill="#1A1E23"/>
<path d="M75.2872 18.9238C79.1872 18.9238 80.0647 20.6083 80.0647 22.7093C80.0647 24.9364 79.002 26.5319 75.3034 26.5319C71.6283 26.5319 70.5645 25.0291 70.5645 22.7093C70.5645 20.4267 71.7228 18.9238 75.2872 18.9238Z" fill="#1A1E23"/>
<path fill-rule="evenodd" clip-rule="evenodd" d="M0 44.6067V0.791016H197.086V44.6067H0ZM93.9307 42.1349H194.6V3.26278H93.9307V42.1349ZM34.5485 30.2618C41.4723 30.2618 44.383 27.292 44.383 22.6537C44.383 17.9401 41.1044 15.1384 34.5485 15.1384C28.0932 15.1384 24.6953 18.1811 24.6953 22.6537C24.6953 27.7011 28.2598 30.2618 34.5485 30.2618ZM10.4761 15.472V30.0394H24.4505V26.1599H15.532V15.472H10.4761ZM60.0228 30.0394L59.8923 28.628C58.2009 29.8283 56.1423 30.4059 54.0696 30.2618C50.9539 30.2618 48.3588 29.3337 46.9035 27.4601C45.9435 26.0922 45.4588 24.4502 45.5227 22.7835C45.4681 21.1518 45.9696 19.5496 46.9457 18.2367C48.4185 16.4187 51.0881 15.2125 55.0627 15.2125C59.635 15.2125 62.322 16.6041 63.4779 18.9424C63.7259 19.4931 63.8717 20.0838 63.9079 20.6862H59.0708C58.9489 20.3202 58.7221 19.9976 58.4183 19.7581C57.4547 19.1228 56.3041 18.8291 55.1521 18.9239C54.4764 18.8424 53.7909 18.9044 53.1411 19.106C52.4914 19.3076 51.892 19.644 51.3826 20.093C50.8042 20.8803 50.5327 21.8494 50.6183 22.8206C50.5512 23.7471 50.8009 24.6691 51.3267 25.4369C51.8406 25.9131 52.4516 26.2738 53.118 26.4947C53.7845 26.7156 54.4908 26.7916 55.1894 26.7173C56.5768 26.8295 57.9542 26.404 59.0335 25.5296C59.2653 25.2414 59.4251 24.9025 59.4996 24.5409H54.2946V21.4104H64.0347V30.0394H60.0228ZM75.3059 30.2618C82.2285 30.2618 85.1404 27.292 85.1404 22.6537C85.1404 17.9401 81.8567 15.1384 75.3059 15.1384C68.8506 15.1384 65.4527 18.1811 65.4527 22.6537C65.4527 27.7011 69.0172 30.2618 75.3059 30.2618Z" fill="#1A1E23"/>
<path d="M102.445 29.9841V15.4167H106.05V29.9841H102.445Z" fill="#1A1E23"/>
<path d="M124.56 23.8974C123.646 25.0851 122.074 25.6276 119.858 25.6412C119.391 25.6412 113.195 25.6227 113.195 25.6227V29.9841H109.668V15.4168H119.859C120.676 15.3309 121.502 15.417 122.283 15.6695C123.064 15.9221 123.783 16.3354 124.393 16.8825C125.198 17.9259 125.59 19.2267 125.494 20.5383C125.576 21.7311 125.247 22.9162 124.56 23.8974ZM121.667 19.1479C121.295 18.5918 120.491 18.2828 119.13 18.2828H113.176V22.7171H119.091C120.546 22.7171 121.313 22.4205 121.667 21.8446C121.878 21.4389 121.968 20.9819 121.928 20.5271C121.96 20.0528 121.87 19.5784 121.667 19.1479Z" fill="#1A1E23"/>
<path d="M135.886 30.2068C129.242 30.2068 127.209 27.7351 127.209 25.2893H130.978C130.978 26.4955 132.639 27.4051 136.054 27.4051C139.45 27.4051 140.346 26.8106 140.346 25.8454C140.346 24.7689 139.675 24.4353 136.52 24.083C135.899 24.0274 134.207 23.8235 133.572 23.7308C129.098 23.229 127.376 21.9116 127.376 19.5548C127.376 17.0682 129.896 15.1946 135.363 15.1946C141.298 15.1946 143.575 17.5143 143.575 19.9268H139.846C139.846 18.702 138.447 17.9963 135.143 17.9963C131.747 17.9963 131.02 18.4598 131.02 19.3694C131.02 20.3161 131.765 20.6127 135.369 21.0391C136.191 21.1515 138.019 21.3554 138.522 21.4098C142.331 21.7991 144.047 23.1722 144.047 25.6032C144.041 28.4988 141.428 30.2068 135.886 30.2068Z" fill="#1A1E23"/>
<path d="M154.661 30.188C149.792 30.188 146.619 28.2761 146.619 24.2558V15.4167H150.182V24.3052C150.182 26.143 151.695 27.3665 154.811 27.3665C157.628 27.3665 159.308 26.2171 159.308 24.3052V15.4167H162.836V24.5857C162.836 28.2402 159.886 30.188 154.661 30.188Z" fill="#1A1E23"/>
<path d="M182.15 29.9841V20.2602L177.578 29.9841H174.108L169.666 20.2602V29.9841H166.311V15.4167H170.857L175.895 26.5137L181.046 15.4167H185.52V29.9841H182.15Z" fill="#1A1E23"/>
</svg>
