<svg width="124" height="60" viewBox="0 0 124 60" fill="none" xmlns="http://www.w3.org/2000/svg">
<path d="M0 35.7578H3.71295V53.9636H0V35.7578Z" fill="#1A1E23"/>
<path d="M5.86748 47.7269C5.86503 46.4193 6.25056 45.1402 6.97528 44.0517C7.7 42.9632 8.73134 42.1142 9.93878 41.6121C11.1461 41.11 12.4754 40.9773 13.7583 41.231C15.0411 41.4846 16.2199 42.113 17.1454 43.0369C18.0709 43.9606 18.7016 45.1383 18.9576 46.4206C19.2137 47.7029 19.0835 49.0324 18.5837 50.2409C18.0838 51.4491 17.2367 52.4821 16.1495 53.2088C15.0625 53.9357 13.7842 54.3235 12.4766 54.3235C11.6068 54.3335 10.744 54.1698 9.93852 53.8419C9.13302 53.5141 8.40104 53.0287 7.78551 52.4143C7.16998 51.8 6.68327 51.0689 6.35392 50.2639C6.02457 49.4591 5.85919 48.5965 5.86748 47.7269ZM15.3478 47.7269C15.3333 47.1624 15.1525 46.6147 14.8283 46.1524C14.504 45.69 14.0507 45.3337 13.5248 45.1276C12.999 44.9216 12.4242 44.8753 11.8722 44.9943C11.3202 45.1134 10.8156 45.3925 10.4214 45.7969C10.0272 46.2012 9.76106 46.7129 9.65613 47.2678C9.55121 47.8226 9.61226 48.3961 9.83157 48.9165C10.051 49.4368 10.4189 49.881 10.8893 50.1933C11.3598 50.5056 11.9118 50.6723 12.4766 50.6725C12.8628 50.6833 13.2472 50.614 13.6054 50.4688C13.9636 50.3236 14.2879 50.1057 14.5578 49.8289C14.8275 49.5521 15.0371 49.2225 15.173 48.8607C15.309 48.4989 15.3685 48.1129 15.3478 47.7269Z" fill="#1A1E23"/>
<path d="M34.0093 41.4889V53.3455C34.0093 57.5411 30.7296 59.311 27.4127 59.311C26.2464 59.3978 25.0786 59.1619 24.0373 58.6292C22.996 58.0966 22.1214 57.2876 21.5092 56.2912L24.7023 54.4471C24.9557 54.9577 25.3566 55.3807 25.8531 55.6609C26.3495 55.9411 26.9187 56.0659 27.487 56.0188C27.8608 56.0812 28.2441 56.0568 28.6071 55.9475C28.9702 55.8383 29.3032 55.6472 29.5807 55.3889C29.858 55.1306 30.0724 54.812 30.2073 54.4577C30.3421 54.1034 30.3938 53.723 30.3583 53.3455V52.1945C29.9218 52.7316 29.3648 53.1582 28.7327 53.4399C28.1005 53.7215 27.4109 53.8503 26.7197 53.8159C25.039 53.8159 23.4273 53.1482 22.2388 51.9599C21.0505 50.7715 20.3828 49.1597 20.3828 47.479C20.3828 45.7984 21.0505 44.1867 22.2388 42.9983C23.4273 41.81 25.039 41.1423 26.7197 41.1423C27.4105 41.1107 28.0991 41.2409 28.7308 41.5223C29.3626 41.8038 29.9199 42.2289 30.3583 42.7636V41.526L34.0093 41.4889ZM30.3583 47.479C30.383 46.8772 30.2271 46.2816 29.9107 45.7689C29.5942 45.2563 29.1316 44.85 28.5825 44.6024C28.0333 44.3547 27.4225 44.277 26.8288 44.3792C26.2351 44.4813 25.6856 44.7588 25.2508 45.1757C24.8159 45.5928 24.5158 46.1303 24.3889 46.7191C24.2619 47.308 24.3141 47.9215 24.5386 48.4805C24.7631 49.0396 25.1496 49.5187 25.6486 49.8563C26.1476 50.194 26.736 50.3747 27.3384 50.3752C27.7317 50.403 28.1264 50.3482 28.497 50.2141C28.8678 50.08 29.2063 49.8699 29.4909 49.597C29.7753 49.3242 29.9995 48.9947 30.149 48.6299C30.2984 48.2652 30.3697 47.8732 30.3583 47.479Z" fill="#1A1E23"/>
<path d="M36.1526 47.7269C36.1502 46.4193 36.5357 45.1402 37.2604 44.0517C37.9852 42.9632 39.0165 42.1142 40.2239 41.6121C41.4313 41.11 42.7605 40.9773 44.0434 41.231C45.3262 41.4846 46.505 42.113 47.4306 43.0369C48.3561 43.9606 48.9867 45.1383 49.2428 46.4206C49.4988 47.7029 49.3687 49.0324 48.8688 50.2409C48.3689 51.4491 47.5218 52.4821 46.4348 53.2088C45.3476 53.9357 44.0693 54.3235 42.7617 54.3235C41.8921 54.3335 41.0292 54.1698 40.2236 53.8419C39.4181 53.5141 38.6861 53.0287 38.0706 52.4143C37.4552 51.8 36.9684 51.0689 36.639 50.2639C36.3097 49.4591 36.1443 48.5965 36.1526 47.7269ZM45.6331 47.7269C45.6184 47.1624 45.4376 46.6147 45.1134 46.1524C44.7891 45.69 44.3358 45.3337 43.81 45.1276C43.2843 44.9216 42.7094 44.8753 42.1574 44.9943C41.6053 45.1134 41.1007 45.3925 40.7065 45.7969C40.3124 46.2012 40.0462 46.7129 39.9412 47.2678C39.8363 47.8226 39.8974 48.3961 40.1167 48.9165C40.3361 49.4368 40.704 49.881 41.1744 50.1933C41.6449 50.5056 42.1969 50.6723 42.7617 50.6725C43.146 50.6798 43.5276 50.608 43.883 50.4612C44.2381 50.3144 44.5594 50.096 44.8265 49.8196C45.0936 49.5433 45.3008 49.2148 45.4354 48.8547C45.5699 48.4947 45.6287 48.1107 45.6083 47.7269H45.6331Z" fill="#1A1E23"/>
<path d="M51.0898 38.147C51.0898 37.7015 51.222 37.266 51.4694 36.8956C51.717 36.5252 52.0688 36.2365 52.4803 36.066C52.892 35.8955 53.3448 35.8509 53.7818 35.9378C54.2187 36.0247 54.6201 36.2393 54.9351 36.5542C55.2502 36.8693 55.4646 37.2706 55.5515 37.7076C55.6386 38.1445 55.5939 38.5975 55.4235 39.009C55.253 39.4206 54.9642 39.7725 54.5939 40.0199C54.2233 40.2674 53.7879 40.3995 53.3423 40.3995C52.746 40.3964 52.1749 40.158 51.7532 39.7362C51.3314 39.3146 51.0931 38.7435 51.0898 38.147ZM51.4735 41.4887H55.1864V53.9642H51.4735V41.4887Z" fill="#1A1E23"/>
<path d="M71.375 47.7264C71.42 48.5511 71.3015 49.3765 71.0263 50.1552C70.7509 50.9338 70.3244 51.6504 69.7711 52.2635C69.2177 52.8766 68.5486 53.3743 67.8022 53.7278C67.0558 54.0812 66.2469 54.2836 65.4219 54.3232C64.7294 54.3563 64.0379 54.2373 63.3965 53.9743C62.7549 53.7112 62.1789 53.3107 61.709 52.8009V58.9891H57.9961V41.4887H61.709V42.6645C62.1789 42.1546 62.7549 41.7541 63.3965 41.491C64.0379 41.228 64.7294 41.109 65.4219 41.1421C66.2458 41.1817 67.0537 41.3837 67.7992 41.7364C68.5448 42.0892 69.2134 42.5857 69.7665 43.1975C70.3197 43.8093 70.7464 44.5243 71.0225 45.3015C71.2986 46.0787 71.4184 46.9028 71.375 47.7264ZM67.6621 47.7264C67.6474 47.1456 67.4626 46.5817 67.1306 46.1048C66.7986 45.628 66.3342 45.2588 65.7946 45.0433C65.255 44.8277 64.6639 44.7751 64.0948 44.8922C63.5256 45.0091 63.0031 45.2905 62.5923 45.7014C62.1814 46.1122 61.9001 46.6345 61.7831 47.2038C61.6662 47.773 61.7187 48.3639 61.9342 48.9035C62.1498 49.4431 62.5189 49.9077 62.9958 50.2396C63.4728 50.5716 64.0366 50.7564 64.6175 50.7711C65.0229 50.7969 65.429 50.7355 65.8088 50.5914C66.1885 50.4471 66.533 50.2232 66.8191 49.9349C67.1051 49.6464 67.3262 49.3001 67.4673 48.9193C67.6084 48.5384 67.6664 48.1317 67.6373 47.7264H67.6621Z" fill="#1A1E23"/>
<path d="M82.936 50.2259C82.936 53.0973 80.4607 54.3225 77.7379 54.3225C76.6502 54.4188 75.5585 54.1873 74.6035 53.658C73.6485 53.1286 72.8737 52.3256 72.3789 51.3521L75.6216 49.5081C75.7532 49.9583 76.0349 50.3499 76.4199 50.6178C76.805 50.8857 77.27 51.0139 77.7379 50.9808C78.6414 50.9808 79.0869 50.6962 79.0869 50.2011C79.0869 48.8273 72.8987 49.5576 72.8987 45.2506C72.8987 42.5277 75.2007 41.1539 77.8493 41.1539C78.8266 41.1243 79.7941 41.3564 80.6516 41.8265C81.509 42.2965 82.225 42.9874 82.7257 43.8272L79.4707 45.5352C79.3269 45.2084 79.0912 44.9302 78.7924 44.7347C78.4936 44.5392 78.1446 44.4346 77.7874 44.4336C77.1439 44.4336 76.7478 44.6812 76.7478 45.1392C76.7973 46.5624 82.936 45.6094 82.936 50.2259Z" fill="#1A1E23"/>
<path d="M96.5996 41.4883V53.9638H92.8866V52.8005C92.4547 53.3174 91.9066 53.7247 91.2871 53.9893C90.6677 54.254 89.9942 54.3681 89.3221 54.3228C86.8469 54.3228 84.6562 52.5281 84.6562 49.1494V41.4883H88.3692V48.6048C88.3365 48.9081 88.3719 49.2148 88.4726 49.5027C88.5732 49.7907 88.7367 50.0526 88.9512 50.2695C89.1657 50.4864 89.4258 50.6527 89.7126 50.7565C89.9994 50.8604 90.3058 50.899 90.6093 50.8698C91.9708 50.8698 92.9238 50.0776 92.9238 48.3078V41.4883H96.5996Z" fill="#1A1E23"/>
<path d="M118.058 46.3151V53.9637H114.345V46.637C114.345 45.3993 113.739 44.5824 112.551 44.5824C111.363 44.5824 110.595 45.4612 110.595 46.934V53.9637H106.882V46.637C106.882 45.3993 106.288 44.5824 105.088 44.5824C103.887 44.5824 103.145 45.4612 103.145 46.934V53.9637H99.4316V41.4884H103.145V42.6394C103.533 42.131 104.042 41.7277 104.625 41.4662C105.209 41.2046 105.849 41.0931 106.486 41.1418C107.127 41.1106 107.764 41.246 108.337 41.5344C108.909 41.8228 109.397 42.2547 109.754 42.7879C110.168 42.2305 110.717 41.7871 111.349 41.4992C111.981 41.2114 112.675 41.0884 113.367 41.1418C116.189 41.1418 118.058 43.1963 118.058 46.3151Z" fill="#1A1E23"/>
<path d="M121.227 41.4148C122.759 41.4148 124 40.1735 124 38.6424C124 37.1113 122.759 35.8701 121.227 35.8701C119.696 35.8701 118.455 37.1113 118.455 38.6424C118.455 40.1735 119.696 41.4148 121.227 41.4148Z" fill="#1A1E23"/>
<path d="M42.0181 26.3145C49.1884 26.3145 55.001 20.5018 55.001 13.3315C55.001 6.16129 49.1884 0.348633 42.0181 0.348633C34.8479 0.348633 29.0352 6.16129 29.0352 13.3315C29.0352 20.5018 34.8479 26.3145 42.0181 26.3145Z" fill="#1A1E23"/>
<path d="M71.0416 26.3145C78.2119 26.3145 84.0244 20.5018 84.0244 13.3315C84.0244 6.16129 78.2119 0.348633 71.0416 0.348633C63.8713 0.348633 58.0586 6.16129 58.0586 13.3315C58.0586 20.5018 63.8713 26.3145 71.0416 26.3145Z" fill="#1A1E23"/>
<path d="M25.9788 0.348633H0.0253906V26.3021H25.9788V0.348633Z" fill="#1A1E23"/>
</svg>
