<svg width="188" height="44" viewBox="0 0 188 44" fill="none" xmlns="http://www.w3.org/2000/svg">
<path fill-rule="evenodd" clip-rule="evenodd" d="M16.44 30.4487C15.0277 30.4487 13.6733 29.8886 12.6746 28.8915C11.676 27.8944 11.1149 26.542 11.1149 25.1319V0.674316H0.464844V25.1319C0.464844 33.9408 7.61745 41.0825 16.44 41.0825H28.1551V30.4487H16.44ZM48.3903 11.308C47.1316 11.308 45.8852 11.5556 44.7223 12.0365C43.5593 12.5175 42.5027 13.2224 41.6126 14.1111C40.7226 14.9998 40.0165 16.0548 39.5348 17.216C39.0532 18.3771 38.8052 19.6216 38.8052 20.8784C38.8052 22.1352 39.0532 23.3797 39.5348 24.5408C40.0165 25.7019 40.7226 26.757 41.6126 27.6456C42.5027 28.5343 43.5593 29.2393 44.7223 29.7202C45.8852 30.2012 47.1316 30.4487 48.3903 30.4487C50.9324 30.4487 53.3704 29.4404 55.168 27.6456C56.9656 25.8509 57.9754 23.4166 57.9754 20.8784C57.9754 18.3402 56.9656 15.9059 55.168 14.1111C53.3704 12.3163 50.9324 11.308 48.3903 11.308ZM28.1551 20.8784C28.1551 9.72042 37.2152 0.674316 48.3903 0.674316C59.5655 0.674316 68.6255 9.72042 68.6255 20.8784C68.6255 32.0364 59.5655 41.0825 48.3903 41.0825C37.2152 41.0825 28.1551 32.0364 28.1551 20.8784ZM163.411 11.308C160.869 11.308 158.431 12.3163 156.634 14.1111C154.836 15.9059 153.826 18.3402 153.826 20.8784C153.826 23.4166 154.836 25.8509 156.634 27.6456C158.431 29.4404 160.869 30.4487 163.411 30.4487C165.954 30.4487 168.392 29.4404 170.189 27.6456C171.987 25.8509 172.997 23.4166 172.997 20.8784C172.997 18.3402 171.987 15.9059 170.189 14.1111C168.392 12.3163 165.954 11.308 163.411 11.308ZM143.176 20.8784C143.176 9.72042 152.236 0.674316 163.411 0.674316C174.587 0.674316 183.647 9.72042 183.647 20.8784C183.647 32.0364 174.587 41.0825 163.411 41.0825C152.236 41.0825 143.176 32.0364 143.176 20.8784ZM90.9907 0.674316C79.8156 0.674316 70.7555 9.72042 70.7555 20.8784C70.7555 32.0364 79.8156 41.0825 90.9907 41.0825H120.811C122.908 41.0825 124.93 40.7634 126.833 40.1722L132.526 43.2092L138.669 31.7205C140.23 28.7959 141.046 25.5331 141.046 22.2193V20.8784C141.046 9.72042 131.986 0.674316 120.811 0.674316H90.9907ZM130.396 20.8784C130.396 18.3402 129.386 15.9059 127.589 14.1111C125.791 12.3163 123.353 11.308 120.811 11.308H90.9907C89.732 11.308 88.4856 11.5556 87.3227 12.0365C86.1598 12.5175 85.1031 13.2224 84.2131 14.1111C83.323 14.9998 82.617 16.0548 82.1353 17.216C81.6536 18.3771 81.4056 19.6216 81.4056 20.8784C81.4056 22.1352 81.6536 23.3797 82.1353 24.5408C82.617 25.7019 83.323 26.757 84.2131 27.6456C85.1031 28.5343 86.1598 29.2393 87.3227 29.7202C88.4856 30.2012 89.732 30.4487 90.9907 30.4487H120.811C123.34 30.4488 125.767 29.4507 127.562 27.672C129.358 25.8933 130.376 23.4781 130.396 20.9528V20.8784Z" fill="#1A1E23"/>
<path d="M187.907 3.33275C187.907 4.03781 187.627 4.71399 187.127 5.21254C186.628 5.71109 185.951 5.99118 185.245 5.99118C184.538 5.99118 183.861 5.71109 183.362 5.21254C182.863 4.71399 182.582 4.03781 182.582 3.33275C182.582 2.62769 182.863 1.95151 183.362 1.45295C183.861 0.9544 184.538 0.674316 185.245 0.674316C185.951 0.674316 186.628 0.9544 187.127 1.45295C187.627 1.95151 187.907 2.62769 187.907 3.33275Z" fill="#1A1E23"/>
</svg>
