<svg width="98" height="64" viewBox="0 0 98 64" fill="none" xmlns="http://www.w3.org/2000/svg">
<path d="M38.2437 47.1636C38.4233 47.0899 38.5752 47.1083 38.7025 47.2188C38.8284 47.3308 38.8882 47.469 38.8821 47.6316C38.8744 47.7958 38.7885 47.9155 38.6243 47.9891C35.6136 49.1661 32.7012 50.478 29.8839 51.9235C31.4184 52.6831 32.1933 53.6452 32.2086 54.8068C32.2086 55.3285 32.0629 55.8717 31.7728 56.4379C31.4828 57.0042 31.1253 57.5213 30.7003 57.9908C30.2752 58.4604 29.7765 58.9376 29.2026 59.421C28.6287 59.9043 28.1147 60.3033 27.6605 60.6163C27.2063 60.9294 26.7398 61.2347 26.2641 61.5324C22.9404 63.5733 20.252 64.3482 18.1943 63.8571C17.6434 63.7374 17.226 63.5288 16.9421 63.2311C16.6583 62.9334 16.5094 62.5866 16.4956 62.1922C16.4803 61.7979 16.5371 61.3943 16.6629 60.9846C16.7887 60.5749 16.979 60.1468 17.2337 59.6987C17.4715 59.266 17.7508 58.8532 18.0715 58.4589C18.3922 58.0645 18.7605 57.687 19.1779 57.3295C19.5953 56.9719 19.9866 56.6512 20.3518 56.3689C20.717 56.085 21.1635 55.7797 21.6929 55.4528C22.2223 55.1244 22.6611 54.8605 23.011 54.6595C23.3609 54.4585 23.8304 54.1976 24.4197 53.8769C25.0074 53.5562 25.4447 53.3138 25.727 53.1511C26.2779 52.8227 26.927 52.4575 27.6712 52.0555C27.283 51.922 26.8886 51.7946 26.4866 51.6749C26.0846 51.5552 25.6518 51.4448 25.1899 51.3404C24.7281 51.2361 24.326 51.1471 23.9823 51.0719C23.6386 50.9967 23.1967 50.92 22.6519 50.8371C22.1072 50.7558 21.7021 50.6913 21.4336 50.6468C21.165 50.6023 20.7185 50.5456 20.0924 50.4796C19.4664 50.4121 19.0567 50.3676 18.8633 50.3461C18.67 50.3231 18.2265 50.2755 17.5329 50.2003C16.8394 50.1251 16.4342 50.0883 16.3146 50.0883C14.7801 49.9241 13.7213 49.809 13.1413 49.7415C12.5597 49.674 11.6513 49.5512 10.4145 49.3732C9.17772 49.1937 8.0867 48.9896 7.13993 48.7579C6.19316 48.5277 5.27401 48.2546 4.37941 47.9416C1.60815 46.9733 0.431205 45.5278 0.847047 43.6051C0.891547 43.3673 0.980547 43.1218 1.11558 42.8671C1.24908 42.6139 1.36878 42.4052 1.47312 42.241C1.57747 42.0768 1.76006 41.865 2.02092 41.6042C2.28178 41.3433 2.45672 41.1715 2.54572 41.0901C2.63472 41.0088 2.84802 40.8262 3.18253 40.5423C3.51705 40.26 3.70732 40.1035 3.75335 40.0728C5.22798 38.7915 6.81617 37.6222 8.51483 36.5634C11.8078 34.4781 15.3172 32.8976 19.0429 31.825C19.1472 31.7805 19.3666 31.7099 19.7027 31.6132C20.0372 31.5166 20.3103 31.4383 20.519 31.3785C20.7277 31.3186 21.0101 31.2404 21.3691 31.1437C21.7267 31.047 22.0366 30.9841 22.2959 30.9534C22.5568 30.9242 22.8576 30.8982 23.2013 30.8751C23.5435 30.8521 23.8411 30.8675 24.0959 30.9196C24.3491 30.9718 24.6069 31.047 24.8677 31.1437C25.1286 31.2404 25.3587 31.3861 25.5613 31.5795C25.7623 31.7728 25.9296 32.0045 26.0646 32.273C26.169 32.5569 26.2211 32.8285 26.2211 33.0894C26.2211 33.3503 26.1383 33.6295 25.9756 33.9272C25.8114 34.2249 25.6365 34.4934 25.4508 34.7313C25.2652 34.9691 25.038 35.2162 24.7695 35.4694C24.501 35.7225 24.2631 35.9358 24.0545 36.1062C23.8458 36.278 23.6294 36.4376 23.4069 36.5865C23.258 36.6908 23.1015 36.7061 22.9374 36.631C22.7732 36.5573 22.6795 36.4453 22.6581 36.2964C22.635 36.1476 22.6918 36.0141 22.8253 35.8944C23.9424 35.1195 24.636 34.4413 24.9045 33.8597C25.0979 33.4132 25.1424 33.0372 25.038 32.7303C24.9337 32.425 24.725 32.2193 24.412 32.115C24.0989 32.0107 23.7414 31.9355 23.3394 31.891C22.9374 31.8465 22.5415 31.8679 22.1548 31.9585C20.3226 32.2424 18.0117 32.9574 15.2251 34.1037C10.3976 36.0862 6.30672 38.7163 2.9539 41.9939C0.644512 44.2435 1.52376 46.0327 5.59165 47.3585C7.42381 47.9554 9.99559 48.4541 13.3024 48.8561C13.9883 48.9313 15.0011 49.0356 16.3422 49.1691C17.6833 49.3026 18.7636 49.4193 19.583 49.5159C20.4024 49.6126 21.386 49.7538 22.5338 49.941C23.6816 50.1282 24.725 50.3399 25.6626 50.5778C27.1971 50.9507 28.2482 51.2407 28.8144 51.4494C31.8235 49.8842 34.9692 48.4541 38.2468 47.1574L38.2437 47.1636ZM29.0568 52.6171C29.0261 52.6018 28.9816 52.5803 28.9233 52.5496C28.8635 52.5189 28.819 52.4974 28.7898 52.4821C27.3444 53.257 25.9741 54.0319 24.6774 54.8068C24.4841 54.9265 24.0621 55.1674 23.4146 55.5326C22.767 55.8978 22.2775 56.1848 21.9507 56.3934C21.6223 56.6021 21.2049 56.8814 20.6986 57.2313C20.1922 57.5811 19.7594 57.9356 19.4019 58.2931C19.0444 58.6507 18.7237 59.0312 18.4413 59.4332C18.2035 59.7908 18.0086 60.1406 17.8598 60.4844C17.7109 60.8265 17.6096 61.1779 17.5575 61.5355C17.5053 61.893 17.5866 62.206 17.803 62.4746C18.0193 62.7431 18.3646 62.9364 18.8418 63.0561C18.9462 63.0853 19.0689 63.1006 19.2101 63.1006H19.6014C19.7211 63.1006 19.8699 63.0822 20.0479 63.0454C20.2275 63.0086 20.364 62.9825 20.4607 62.9671C20.5574 62.9518 20.7062 62.915 20.9072 62.8551C21.1083 62.7953 21.2387 62.7538 21.2985 62.7324C21.3584 62.7093 21.4919 62.6648 21.7006 62.5989C21.9092 62.5313 22.0213 62.4976 22.0351 62.4976C23.1829 62.1247 24.636 61.3498 26.393 60.1729C28.9863 58.4297 30.4839 56.8645 30.8859 55.4789C31.2434 54.2575 30.6327 53.303 29.0538 52.6171H29.0568Z" fill="white"/>
<path d="M54.0906 39.8764C54.2701 39.861 54.4067 39.9209 54.5049 40.0559C54.6016 40.1894 54.6246 40.3352 54.5724 40.4917C54.5202 40.6482 54.4052 40.7418 54.2256 40.771C50.0825 41.2773 45.7906 41.9034 41.3514 42.6492C39.9059 48.7441 39.019 54.9127 38.6921 61.1565C38.6768 61.336 38.5909 61.4541 38.4359 61.514C38.2794 61.5738 38.1305 61.5585 37.9893 61.4695C37.8482 61.3805 37.7776 61.2455 37.7776 61.0675C38.1198 54.9127 38.9914 48.827 40.3923 42.8057C38.1428 43.1939 36.1311 43.5514 34.3572 43.8783C34.2529 43.8936 34.1593 43.8783 34.078 43.8338C33.9966 43.7893 33.9399 43.7264 33.9107 43.6435C33.8816 43.5622 33.8662 43.4762 33.8662 43.3857C33.8662 43.2952 33.9 43.2138 33.9675 43.1402C34.035 43.0665 34.1209 43.0144 34.2253 42.9837C36.0728 42.6415 38.2118 42.2609 40.6409 41.8436C41.0583 40.1004 41.4833 38.4984 41.9145 37.0376C41.9744 36.8581 42.0818 36.7614 42.2383 36.7476C42.3948 36.7322 42.5329 36.789 42.6526 36.9148C42.7723 37.0422 42.8091 37.1941 42.7646 37.3736C42.3917 38.6258 42.0051 40.0636 41.603 41.687C45.9088 40.972 50.0749 40.3689 54.0982 39.8764H54.0906Z" fill="white"/>
<path d="M54.4927 46.381C54.6124 46.2475 54.7505 46.2138 54.907 46.2797C55.0635 46.3457 55.1556 46.4593 55.1863 46.6143C55.2155 46.7708 55.1709 46.9242 55.0528 47.0731C54.7689 47.3569 54.4083 47.673 53.9694 48.0229C53.529 48.3728 53.0227 48.7426 52.4488 49.1293C51.8749 49.5175 51.301 49.8336 50.7271 50.0791C50.1532 50.3246 49.61 50.4919 49.096 50.5824C48.5819 50.6714 48.1354 50.5931 47.7548 50.3476C47.3743 50.1021 47.1257 49.674 47.006 49.0617C46.8863 49.1507 46.7406 49.2674 46.5702 49.4085C46.3984 49.5497 46.2465 49.6771 46.1114 49.7891C45.9764 49.9011 45.8214 50.0208 45.6419 50.1466C45.4623 50.274 45.2997 50.3845 45.1508 50.4811C45.002 50.5778 44.8378 50.6683 44.6598 50.7497C44.4803 50.831 44.3053 50.8908 44.135 50.9292C43.9632 50.966 43.7852 50.989 43.598 50.9967C43.4107 51.0044 43.2297 50.9783 43.0501 50.9185C42.7064 50.8295 42.4425 50.6499 42.2568 50.3814C42.0712 50.1129 41.9775 49.8228 41.9775 49.5098C41.9775 49.1968 42.022 48.8699 42.111 48.5262C42.2906 47.8863 42.6174 47.3339 43.0946 46.872C43.5719 46.4102 44.1074 46.0818 44.7043 45.8884C45.2997 45.6951 45.9304 45.6245 46.5932 45.6767C47.2561 45.7289 47.8638 45.9191 48.4147 46.246C48.6832 46.3948 48.72 46.5882 48.5267 46.8275C48.3471 47.0654 48.1384 47.1114 47.9006 46.961C46.7682 46.3058 45.6127 46.3273 44.4358 47.0286C44.1979 47.1774 43.977 47.3416 43.7759 47.5196C43.5749 47.6991 43.3847 47.9109 43.2067 48.1564C43.0271 48.4019 42.9412 48.6413 42.9489 48.8715C42.9565 49.1032 43.0563 49.3441 43.2512 49.5973C43.4598 49.8213 43.6977 49.9318 43.9662 49.9318C44.2347 49.9318 44.5094 49.8459 44.7933 49.674C45.0756 49.5021 45.3488 49.3134 45.6096 49.1047C45.8705 48.896 46.1529 48.6658 46.4582 48.4111C46.7636 48.1579 47.006 47.9723 47.184 47.8526C47.3329 47.7636 47.474 47.7774 47.6091 47.8971C47.7426 48.0168 47.8101 48.1579 47.8101 48.3221C47.8392 49.9916 48.9655 50.1696 51.1859 48.8592C52.3782 48.1595 53.4508 47.3615 54.4052 46.4669C54.4344 46.4224 54.4651 46.3933 54.4943 46.3779L54.4927 46.381Z" fill="white"/>
<path d="M72.7093 46.6035C72.829 46.47 72.9778 46.4209 73.1558 46.4577C73.3353 46.4946 73.4535 46.5805 73.5134 46.7155C73.5732 46.849 73.5502 46.9841 73.4458 47.1176C71.181 49.5758 69.0281 50.9476 66.9857 51.2299C66.0911 51.3496 65.3607 51.2299 64.7945 50.8724C64.661 50.7834 64.5183 50.656 64.3694 50.4919C64.2206 50.3277 64.0932 50.1758 63.9889 50.0331C63.8845 49.8919 63.7649 49.7384 63.6314 49.5742C63.4979 49.4101 63.3705 49.2873 63.2508 49.206C63.1311 49.1246 62.9853 49.0648 62.815 49.0264C62.6431 48.9896 62.4682 49.0234 62.2902 49.1277C62.0969 49.2167 61.8989 49.3778 61.6979 49.608C61.4969 49.8397 61.3174 50.0622 61.1608 50.2786C61.0043 50.4949 60.8401 50.6883 60.6683 50.8601C60.4964 51.032 60.3 51.098 60.076 51.0611C59.8519 51.0243 59.6141 50.8632 59.3609 50.5809C59.2566 50.4765 59.1491 50.3123 59.0371 50.0898C58.9251 49.8658 58.8284 49.6464 58.7471 49.43C58.6642 49.2136 58.5599 48.9911 58.4341 48.7594C58.3067 48.5293 58.184 48.3543 58.0658 48.2346C57.9461 48.115 57.7896 48.0367 57.5963 47.9999C57.4029 47.963 57.1866 48.0336 56.9487 48.2116C56.6203 48.4203 56.2152 48.9236 55.7303 49.72C55.2455 50.5179 54.9002 51.0197 54.6915 51.2284C54.5427 51.3772 54.3784 51.3957 54.2004 51.2836C54.0209 51.1716 53.9396 51.0197 53.955 50.8248C54.1345 48.9466 54.5288 47.0915 55.1396 45.2593C55.1994 45.0951 55.3099 45.0015 55.4741 44.98C55.6383 44.957 55.7763 45.0107 55.8868 45.1365C55.9988 45.2639 56.0249 45.4158 55.9651 45.5954C55.6076 46.6986 55.3237 47.8602 55.115 49.0817C55.3391 48.7088 55.5324 48.408 55.6966 48.1763C55.8607 47.9462 56.0572 47.6991 56.2889 47.4383C56.5191 47.1774 56.7584 46.9948 57.0039 46.8904C57.2494 46.7861 57.4996 46.7646 57.7528 46.8229C57.8126 46.8383 57.8755 46.8598 57.943 46.8904C58.0106 46.9211 58.0735 46.9503 58.1333 46.9794C58.1932 47.0101 58.253 47.0546 58.3128 47.1129C58.3727 47.1728 58.4202 47.2219 58.4586 47.2587C58.4954 47.2955 58.5446 47.3554 58.6044 47.4383C58.6643 47.5196 58.7087 47.5794 58.7379 47.6178C58.767 47.6546 58.8116 47.7221 58.8714 47.8188C58.9313 47.9155 58.9681 47.9784 58.9834 48.0091C58.9988 48.0398 59.0356 48.1027 59.0954 48.1994C59.1553 48.296 59.1845 48.3528 59.1845 48.3666C59.2888 48.5461 59.4085 48.761 59.542 49.0142C59.6755 49.2673 59.7583 49.4361 59.7875 49.5175C59.8166 49.5988 59.8887 49.6817 59.9992 49.763C60.1112 49.8443 60.1788 49.8827 60.2003 49.875C60.2233 49.8673 60.3046 49.8152 60.4458 49.7185C60.587 49.6218 60.7066 49.5175 60.8033 49.4055C60.9 49.2934 61.0672 49.1108 61.3066 48.8576C61.635 48.4848 61.9219 48.2239 62.1675 48.0751C62.413 47.9262 62.6784 47.8848 62.9608 47.9523C63.2431 48.0198 63.5562 48.2178 63.8999 48.5446C64.0042 48.649 64.1945 48.8791 64.4692 49.2382C64.7454 49.5957 64.9725 49.8412 65.1505 49.9763C65.4788 50.2003 65.8395 50.3261 66.2354 50.3568C66.6297 50.3875 66.9765 50.3568 67.2742 50.2678C67.5719 50.1788 67.9294 50.0438 68.3468 49.8658C69.8521 49.2259 71.3052 48.138 72.7047 46.602L72.7093 46.6035Z" fill="white"/>
<path d="M82.4313 46.381C82.6108 46.3518 82.7474 46.404 82.8441 46.5375C82.9407 46.671 82.9637 46.8168 82.9116 46.9733C82.8594 47.1298 82.7443 47.2234 82.5648 47.2526C81.3725 47.4613 80.3597 47.9462 79.525 48.7057C79.436 49.2719 79.2196 49.8305 78.8774 50.3814C78.5352 50.9322 78.147 51.4095 77.7158 51.8115C77.5225 51.9757 77.3399 51.9834 77.168 51.8345C76.9962 51.6857 76.9409 51.5077 77.0008 51.2975C77.2985 50.1205 77.857 49.1139 78.6764 48.2807C78.7807 47.3861 78.4524 46.7462 77.6928 46.358C76.7537 45.8669 75.8668 46.2322 75.0336 47.4536C74.3323 48.4679 73.9088 49.9947 73.76 52.0355C73.5958 54.3449 73.6111 56.461 73.8044 58.3837C74.0423 60.0823 74.3783 61.7595 74.8095 63.4121C74.8694 63.65 74.7604 63.8111 74.4858 63.8924C74.2096 63.9737 74.027 63.8955 73.938 63.6576C73.938 63.6423 73.9349 63.6239 73.9272 63.6024C73.9195 63.5794 73.9165 63.561 73.9165 63.5472V63.5241C73.5144 62.272 73.2229 60.9017 73.0449 59.4118C72.181 54.0319 72.3298 48.675 73.4914 43.3412C73.5206 43.1617 73.6172 43.0435 73.7814 42.9837C73.9456 42.9238 74.0945 42.9392 74.228 43.0282C74.3615 43.1172 74.4136 43.2522 74.3845 43.4302C74.0423 44.9954 73.7876 46.5897 73.6249 48.2132C73.9073 47.4827 74.2801 46.8644 74.742 46.358C75.2039 45.8363 75.6734 45.4757 76.1507 45.2746C76.6279 45.0736 77.1158 45.0552 77.6146 45.2194C78.1133 45.3836 78.5798 45.7488 79.0109 46.315C79.2795 46.6879 79.4575 47.0976 79.548 47.5441C80.3981 46.9334 81.3587 46.5467 82.4313 46.3825V46.381Z" fill="white"/>
<path d="M91.2829 46.3135C91.4164 46.18 91.5591 46.1462 91.708 46.2122C91.8568 46.2797 91.9504 46.3918 91.9872 46.5467C92.0241 46.7033 91.9842 46.8567 91.8645 47.0055C88.794 50.1497 86.1424 51.454 83.9067 50.9169C83.1164 50.7374 82.5211 50.3921 82.1191 49.8781C81.717 49.364 81.5574 48.7901 81.6387 48.1564C81.7216 47.5227 82.0147 46.9166 82.5211 46.335C82.9231 45.9023 83.4448 45.5524 84.0862 45.2839C85.0391 44.8972 85.5087 45.135 85.4949 45.9989V46.0434C85.4796 46.625 85.1297 47.1759 84.4438 47.6976C83.7579 48.2193 83.1395 48.3912 82.5886 48.2116C82.5287 48.8822 82.8126 49.3809 83.4387 49.7093C84.0647 50.0377 84.7491 50.1343 85.4949 49.9993C86.5522 49.806 87.5403 49.3917 88.4564 48.7595C89.3725 48.1257 90.3147 47.3109 91.2845 46.312L91.2829 46.3135ZM84.1982 46.18C83.9896 46.1953 83.7625 46.3212 83.5169 46.5606C83.2714 46.7984 83.0581 47.0593 82.8801 47.3431C83.1932 47.492 83.5737 47.314 84.0203 46.8061C84.3179 46.4639 84.4008 46.2552 84.2658 46.18H84.1982Z" fill="white"/>
<path d="M96.694 38.2667C96.5144 39.7413 96.3809 40.9121 96.2919 41.7761C96.2029 42.64 96.1201 43.7586 96.0464 45.1289C95.9712 46.5007 95.9605 47.6807 96.0127 48.672C96.0648 49.6633 96.1845 50.7543 96.3702 51.9466C96.5558 53.1388 96.829 54.2559 97.1865 55.2994C97.2464 55.4789 97.2203 55.6308 97.1083 55.7582C96.9962 55.884 96.8581 55.9439 96.6955 55.9377C96.5313 55.93 96.4193 55.8364 96.3609 55.6584C95.3773 52.812 94.9753 49.3548 95.1533 45.2869C94.3032 47.7758 93.1493 49.7875 91.6885 51.322C91.4353 51.6059 91.1484 51.8361 90.8277 52.0156C90.507 52.1951 90.1985 52.3133 89.8993 52.3731C89.6016 52.433 89.3484 52.3501 89.1397 52.1276C88.9311 51.9036 88.819 51.5461 88.8052 51.055C88.7899 50.0868 89.1213 49.0848 89.7995 48.049C90.4778 47.0132 91.2634 46.3319 92.158 46.0035C92.4266 45.9145 92.6199 45.9959 92.7396 46.249C92.8593 46.5176 92.7918 46.7109 92.5386 46.8306C91.5396 47.1881 90.7509 48.0521 90.1694 49.4239C89.6783 50.5563 89.6032 51.1747 89.9453 51.2791C90.154 51.3236 90.5192 51.1302 91.0409 50.6975C92.1442 49.7737 93.1202 48.0904 93.9687 45.646C95.0413 42.5172 95.8316 38.4493 96.3379 33.4423C96.3533 33.2628 96.4392 33.1446 96.5957 33.0848C96.7522 33.0249 96.9011 33.0403 97.0423 33.1293C97.1835 33.2183 97.2464 33.3533 97.2326 33.5313C97.1881 33.9779 97.1359 34.4996 97.076 35.0965C96.9425 36.3179 96.8152 37.3767 96.6955 38.2698L96.694 38.2667Z" fill="white"/>
<path d="M67.2344 21.4643V31.799H67.8389C70.5442 31.799 72.7447 29.4804 72.7447 26.6324C72.7447 23.7844 70.5442 21.4658 67.8389 21.4658H67.2344V21.4643Z" fill="white"/>
<path d="M62.9316 27.7617C62.9316 29.8072 64.3878 31.5166 66.2921 31.7636V23.7614C64.3894 24.0084 62.9316 25.7178 62.9316 27.7633V27.7617Z" fill="white"/>
<path d="M70.5929 17.5928C70.5929 15.9892 69.3561 14.6849 67.837 14.6849H67.2324V20.4991H67.837C69.3561 20.4991 70.5929 19.1948 70.5929 17.5912V17.5928Z" fill="white"/>
<path d="M82.4893 21.1819C82.4939 21.0116 82.4939 20.8413 82.4893 20.6725L82.4847 20.4484L90.3857 20.4515C90.1325 10.4958 81.8862 2.42911 71.8999 2.42604C71.6344 2.42604 72.1607 2.42604 71.8953 2.42604C66.9635 2.42604 62.3217 4.35027 58.8246 7.8458C55.4473 11.2216 53.5276 15.6854 53.4033 20.4392L61.3059 20.4423L61.2997 20.6663C61.2951 20.8351 61.2951 21.0055 61.2997 21.1758L61.3059 21.4013L53.4033 21.3983C53.6565 31.3539 61.9028 39.4207 71.8891 39.4237H71.8953C81.8786 39.4237 90.1279 31.3647 90.3872 21.4106L82.4847 21.4075L82.4908 21.1835L82.4893 21.1819ZM81.228 14.685H77.1662V20.4991H79.0781V21.4643H77.1662V31.7989H81.228V32.7641H76.224V21.4643H70.9869C72.6334 22.5691 73.686 24.4964 73.686 26.6308C73.686 30.0128 71.0636 32.7626 67.8397 32.7626H66.2944V32.7319C63.8654 32.4818 61.9933 30.3412 61.9933 27.7602C61.9933 25.1792 63.8654 23.0386 66.2944 22.7885V21.4643H62.667V20.4991H66.2944V13.7198H67.8397C69.8774 13.7198 71.5362 15.4568 71.5362 17.5928C71.5362 18.7222 71.062 19.7763 70.2733 20.5006H76.224V13.7213H81.228V14.6865V14.685Z" fill="white"/>
<path d="M71.9615 7.62939e-06C60.3777 7.62939e-06 50.9883 9.39099 50.9883 20.9732C50.9883 32.5554 60.3793 41.9464 71.9615 41.9464C83.5437 41.9464 92.9347 32.5554 92.9347 20.9732C92.9347 9.39099 83.5437 7.62939e-06 71.9615 7.62939e-06ZM85.6429 34.6791C81.9632 38.3557 77.0805 40.3812 71.8955 40.3812H71.8893C66.6998 40.3812 61.8171 38.3527 58.1389 34.6714C54.4608 30.9918 52.4368 26.106 52.4384 20.918C52.4414 10.192 61.1695 1.46696 71.8955 1.46696H71.9016C77.0912 1.46696 81.9739 3.49554 85.6521 7.17674C89.3302 10.8579 91.3557 15.7422 91.3526 20.9302C91.3511 26.1183 89.3225 31.001 85.6429 34.6791Z" fill="white"/>
</svg>
