<svg width="94" height="63" viewBox="0 0 94 63" fill="none" xmlns="http://www.w3.org/2000/svg">
<path d="M88.0938 2.44921C88.0938 3.51927 88.9611 4.38671 90.0312 4.38671H91.9688C93.0389 4.38671 93.9062 3.51927 93.9062 2.44921C93.9062 1.37917 93.0389 0.511719 91.9688 0.511719H90.0312C88.9611 0.511719 88.0938 1.37917 88.0938 2.44921Z" fill="#1A1E23"/>
<path d="M31.9062 62.512H41.3183L38.5782 59.7719C37.8516 59.0452 36.8659 58.637 35.8383 58.637H31.9062C16.9255 58.637 4.78125 46.4927 4.78125 31.512C4.78125 16.5312 16.9255 4.38698 31.9062 4.38696H62.9062C77.887 4.38696 90.0312 16.5312 90.0312 31.512C90.0312 46.4927 77.887 58.637 62.9062 58.637H51.3098C49.7681 58.637 48.2897 58.0246 47.1996 56.9346L43.9896 53.7244C42.1728 51.9076 39.7086 50.887 37.1394 50.887H31.9062C21.2057 50.887 12.5312 42.2125 12.5312 31.512C12.5312 20.8114 21.2057 12.137 31.9062 12.137H62.9062C73.6068 12.137 82.2812 20.8114 82.2812 31.512C82.2812 42.2125 73.6068 50.887 62.9062 50.887H55.4602C53.9186 50.887 52.4402 50.2746 51.3501 49.1846L48.1399 45.9744C46.3231 44.1576 43.8591 43.137 41.2898 43.137H31.9062C25.486 43.137 20.2812 37.9322 20.2812 31.512C20.2812 25.0917 25.486 19.887 31.9062 19.887H62.9062C69.3265 19.887 74.5312 25.0917 74.5312 31.512C74.5312 37.8539 69.4527 43.0099 63.1406 43.1346L63.1394 43.137H60.304C58.7623 43.137 57.2839 42.5246 56.1938 41.4346L52.9836 38.2244C51.493 36.7336 49.5665 35.779 47.5036 35.4843L47.4062 35.387H31.9062C29.7662 35.387 28.0312 33.652 28.0312 31.512C28.0312 29.3719 29.7662 27.637 31.9062 27.637H62.9062C65.0463 27.637 66.7812 29.3719 66.7812 31.512C66.7812 33.652 65.0463 35.387 62.9062 35.387H55.1562L57.8963 38.1271C58.623 38.8537 59.6086 39.262 60.6363 39.262H62.9062C67.1864 39.262 70.6562 35.7921 70.6562 31.512C70.6562 27.2318 67.1864 23.762 62.9062 23.762H31.9062C27.6261 23.762 24.1562 27.2318 24.1562 31.512C24.1562 35.7921 27.6261 39.262 31.9062 39.262H46.1335C47.6752 39.262 49.1536 39.8744 50.2437 40.9643L53.4539 44.1745C55.2706 45.9913 57.7347 47.012 60.304 47.012H63.875V46.9822C71.9841 46.4822 78.4062 39.747 78.4062 31.512C78.4062 22.9516 71.4666 16.012 62.9062 16.012H31.9062C23.3459 16.012 16.4062 22.9516 16.4062 31.512C16.4062 40.0725 23.3459 47.012 31.9062 47.012H41.2898C42.8314 47.012 44.3098 47.6244 45.3999 48.7143L48.6101 51.9245C50.4269 53.7413 52.8909 54.762 55.4602 54.762H62.9062C75.7469 54.762 86.1562 44.3526 86.1562 31.512C86.1562 18.6713 75.7469 8.26196 62.9062 8.26196H31.9062C19.0656 8.26196 8.65625 18.6713 8.65625 31.512C8.65625 44.3526 19.0656 54.762 31.9062 54.762H37.1394C38.681 54.762 40.1594 55.3744 41.2495 56.4643L44.4597 59.6745C46.2765 61.4913 48.7405 62.512 51.3098 62.512H62.9062C80.0271 62.512 93.9062 48.6328 93.9062 31.512C93.9062 14.3911 80.0271 0.511961 62.9062 0.511963L31.9062 0.511969C14.7854 0.511971 0.906249 14.3911 0.90625 31.512C0.906251 48.6328 14.7854 62.512 31.9062 62.512Z" fill="#1A1E23"/>
</svg>
