<svg width="32" height="32" viewBox="0 0 32 32" fill="none" xmlns="http://www.w3.org/2000/svg">
<path opacity="0.4" d="M15.7193 18.9467L11.3593 23.3067C10.8793 22.88 10.4127 22.44 9.95935 21.9867C8.58602 20.6 7.34602 19.1467 6.23935 17.6267C5.14602 16.1067 4.26602 14.5867 3.62602 13.08C2.98602 11.56 2.66602 10.1067 2.66602 8.71999C2.66602 7.81332 2.82602 6.94666 3.14602 6.14666C3.46602 5.33332 3.97268 4.58666 4.67935 3.91999C5.53268 3.07999 6.46602 2.66666 7.45268 2.66666C7.82602 2.66666 8.19935 2.74666 8.53268 2.90666C8.87935 3.06666 9.18602 3.30666 9.42602 3.65332L12.5193 8.01332C12.7593 8.34666 12.9327 8.65332 13.0527 8.94666C13.1727 9.22666 13.2393 9.50666 13.2393 9.75999C13.2393 10.08 13.146 10.4 12.9593 10.7067C12.786 11.0133 12.5327 11.3333 12.2127 11.6533L11.1993 12.7067C11.0527 12.8533 10.986 13.0267 10.986 13.24C10.986 13.3467 10.9993 13.44 11.026 13.5467C11.066 13.6533 11.106 13.7333 11.1327 13.8133C11.3727 14.2533 11.786 14.8267 12.3727 15.52C12.9727 16.2133 13.6127 16.92 14.306 17.6267C14.786 18.0933 15.2527 18.5467 15.7193 18.9467Z" fill="white"/>
<path d="M29.2922 24.44C29.2922 24.8133 29.2255 25.2 29.0922 25.5733C29.0522 25.68 29.0122 25.7867 28.9588 25.8933C28.7322 26.3733 28.4388 26.8267 28.0522 27.2533C27.3988 27.9733 26.6788 28.4933 25.8655 28.8267C25.8522 28.8267 25.8388 28.84 25.8255 28.84C25.0388 29.16 24.1855 29.3333 23.2655 29.3333C21.9055 29.3333 20.4522 29.0133 18.9188 28.36C17.3855 27.7067 15.8522 26.8267 14.3322 25.72C13.8122 25.3333 13.2922 24.9467 12.7988 24.5333L17.1588 20.1733C17.5322 20.4533 17.8655 20.6667 18.1455 20.8133C18.2122 20.84 18.2922 20.88 18.3855 20.92C18.4922 20.96 18.5988 20.9733 18.7188 20.9733C18.9455 20.9733 19.1188 20.8933 19.2655 20.7467L20.2788 19.7467C20.6122 19.4133 20.9322 19.16 21.2388 19C21.5455 18.8133 21.8522 18.72 22.1855 18.72C22.4388 18.72 22.7055 18.7733 22.9988 18.8933C23.2922 19.0133 23.5988 19.1867 23.9322 19.4133L28.3455 22.5467C28.6922 22.7867 28.9322 23.0667 29.0788 23.4C29.2122 23.7333 29.2922 24.0667 29.2922 24.44Z" fill="white"/>
</svg>
